<svg xmlns="http://www.w3.org/2000/svg" viewBox="0 0 165.43 124.22"><defs><style>.cls-1{fill:#a8ba75;}.cls-2{fill:#292e4a;}.cls-3{fill:#f9cca9;}.cls-4{fill:#6470b5;}.cls-5{fill:#ffd817;}.cls-6{fill:#f70;}.cls-7{fill:#dc5181;}.cls-10,.cls-8{fill:none;stroke-miterlimit:10;stroke-width:0.68px;}.cls-8{stroke:#fff;}.cls-9{fill:#fff;}.cls-10{stroke:#292e4a;}</style></defs><title>Asset 4</title><g id="Layer_2" data-name="Layer 2"><g id="Layer_1-2" data-name="Layer 1"><path class="cls-1" d="M145.64,102.4H101.05l20.3-84.1a6.09,6.09,0,0,1,5.92-4.65h32.07a6.07,6.07,0,0,1,5.91,7.5Z"/><path class="cls-2" d="M145.64,102.4H132.49L152.8,18.3a6.08,6.08,0,0,1,5.91-4.65h.63a6.07,6.07,0,0,1,5.91,7.5Z"/><path class="cls-3" d="M34.2,82.57S22.86,93.56,21,94.34s-12.64,4.54-14.3,4.1S6.19,102,9,102.28s16.57,0,18.23,0,1.57-2.27,2.7-4.88S42.4,86.93,42.4,86.93Z"/><path class="cls-2" d="M24.86,95.1a4.57,4.57,0,0,0-2.09-2A9.73,9.73,0,0,1,21,94.34c-1.83.79-12.64,4.54-14.3,4.1S6.19,102,9,102.28s16.57,0,18.23,0,1.58-2.19,2.65-4.75c-2.18-.41-4.32-1.14-5-2.43"/><path class="cls-2" d="M115.56,93.19s-1.8,11-8.44,11H98.78c-6.54,0-35.31-20.67-37.3-22.37s-4.26,0-6.85,2.21-10.9,7.79-10.9,7.79l-10.89-9s7.67-9.48,13.94-15.75S59,58,65.25,60.16,90.4,76.33,90.4,76.33Z"/><path class="cls-3" d="M45.3,82.57S34,93.56,32.13,94.34s-12.65,4.54-14.31,4.1-.52,3.58,2.27,3.84,16.57,0,18.23,0S39.89,100,41,97.4,53.5,86.93,53.5,86.93Z"/><path class="cls-4" d="M36,95.1a4.64,4.64,0,0,0-2.1-2,10.15,10.15,0,0,1-1.74,1.25c-1.84.79-12.65,4.54-14.31,4.1s-.52,3.58,2.27,3.84,16.57,0,18.23,0,1.58-2.19,2.65-4.75c-2.18-.41-4.32-1.14-5-2.43"/><path class="cls-3" d="M108.1,45.25c-3.43.46-6.51,3.73-8.73,8.44s5.69,6.54,5.69,6.54Z"/><path class="cls-5" d="M84.54,37.12a19.87,19.87,0,0,0,9.77-16.88C94.31,9.06,84.58,0,72.58,0S50.85,9.06,50.85,20.24s9.73,20.23,21.73,20.23A23.63,23.63,0,0,0,77.31,40c3.17,4.39,10.93,5.22,16.09,3.48-5-1.66-7.57-4.3-8.86-6.34"/><path class="cls-6" d="M119.72,43.61l4.88,1.44s10.69-1.17,12,.66,1,23.94,0,29.05-4.32,19.5-11,20.28-9.74-7.2-12.13-10.34-12.73-7.06-12.6-9.68,3.27-13.22,3.4-18.84.4-9.42,2.23-10.47,9-.66,9-.66Z"/><path class="cls-4" d="M104.27,56.18A28.85,28.85,0,0,1,104,59.6l33.42,5.25c.08-2.49.12-5.14.11-7.65l-33-5.2c-.08,1.24-.13,2.64-.17,4.18"/><path class="cls-4" d="M102.67,66.29c-.65,2.94-1.31,5.69-1.62,7.42l34.54,5.44c.45-1.75.78-3.29,1-4.39a30.86,30.86,0,0,0,.39-3.07Z"/><polygon class="cls-7" points="70.88 34.22 68.85 32.11 66.81 34.22 66.81 25.38 70.88 25.38 70.88 34.22"/><polygon class="cls-2" points="72.49 13.29 61.14 9.98 61.14 26.05 72.49 29.36 83.84 26.05 83.84 9.98 72.49 13.29"/><line class="cls-8" x1="72.49" y1="14.59" x2="72.49" y2="27.94"/><path class="cls-3" d="M110,24.81s-2.44,8.64-1.83,9,.69.87.87,1.92-1.48,6.11,2.36,6.28,4.1,1.13,4.1,3c0,0,5.41,1.49,9.07,0,0,0,.35-6.28,1.14-7.41s3.57-8.73,2.26-11.26-15-7-18-1.57"/><path class="cls-2" d="M128.79,27.78a20.75,20.75,0,0,1,.09,3.79c-.13,2.14-3.58,7.22-3.7,8s-3.06-1.74-3.2-3.09.48-2.18,1-3.32,0-2.39-.83-2.48S120.41,32,120.07,33s-1.27-6.41-1.27-6.41Z"/><path class="cls-7" d="M98.25,27.78s14-.18,19.2,0,11,.26,11.34,0,.09-11.17-7.85-11.17-11.87,5.24-12.65,9.25c-4.89.52-11.43,1.57-10,1.92"/><path class="cls-2" d="M105.47,74.93H86.17a1.2,1.2,0,0,1-1.18-1l-3-20.75a1.2,1.2,0,0,1,1.18-1.38h19.3a1.2,1.2,0,0,1,1.19,1l3,20.75a1.19,1.19,0,0,1-1.19,1.37"/><path class="cls-9" d="M86.34,54.61a.92.92,0,1,1-.92-.92.92.92,0,0,1,.92.92"/><path class="cls-9" d="M92.59,55.13H88.46a.51.51,0,0,1-.51-.52h0a.52.52,0,0,1,.51-.52h4.13a.52.52,0,0,1,.52.52h0a.52.52,0,0,1-.52.52"/><path class="cls-3" d="M134.8,44.94c5,.33,5.85,6.13,5.94,9.71s-1.4,34.72-6.46,35.94S109,73.84,109,73.84s-4.13-2.76-5.62-3.49-3.14-2.27-3-3.66-.88-3.14.43-3.32a28,28,0,0,1,4.19.09L105,61.89a10.86,10.86,0,0,1,6.81,5.9c4.45,3.7,16.66,11.37,17.71,10.76s.61-13.69.87-17.44.15-16.47,4.44-16.17"/><path class="cls-4" d="M126.28,94.91c1.1,2.87-1.41,9.3-8.06,9.3H108.1c-4.48,0-33.53-20.67-35.52-22.36s-4.26,0-6.85,2.2-10.89,7.79-10.89,7.79L44,82.86s7.67-9.48,13.93-15.75,12.2-9.15,18.47-7S101.5,76.33,101.5,76.33s9,5.23,11.46,7.68c3.35,3.38,5.54,12.78,13.32,10.9"/><path class="cls-10" d="M118.37,92a6.49,6.49,0,0,1-6.11,2c-6.28-.91-34.73-22.5-39.68-23.16S51.9,89.42,51.9,89.42"/><path class="cls-2" d="M5.13,109s-5.85,15.18-3.77,15.18S11,109,11,109Z"/><path class="cls-2" d="M33.64,109s-5.86,15.18-3.77,15.18S39.49,109,39.49,109Z"/><path class="cls-2" d="M144,109s5.86,15.18,3.78,15.18S138.14,109,138.14,109Z"/><path class="cls-2" d="M115.49,109s5.85,15.18,3.77,15.18S109.63,109,109.63,109Z"/><path class="cls-1" d="M144.53,111H4.85A4.85,4.85,0,0,1,0,106.14a3.74,3.74,0,0,1,3.74-3.74h141.9a3.74,3.74,0,0,1,3.74,3.74,4.85,4.85,0,0,1-4.85,4.85"/><path class="cls-2" d="M42.08,106.14a3.74,3.74,0,0,1,3.74-3.74H3.74A3.73,3.73,0,0,0,0,106.14,4.85,4.85,0,0,0,4.85,111H46.93a4.85,4.85,0,0,1-4.85-4.85"/></g></g></svg>