<svg xmlns="http://www.w3.org/2000/svg" viewBox="0 0 521.62 708.48"><defs><style>.cls-1{fill:#a8ba75;}.cls-10,.cls-2,.cls-5,.cls-8{fill:none;stroke-miterlimit:10;}.cls-2{stroke:#598048;stroke-width:2.06px;}.cls-3{fill:#292e4a;}.cls-4{fill:#6470b5;}.cls-5{stroke:#292e4a;}.cls-5,.cls-8{stroke-width:1.86px;}.cls-6{fill:#f9cca9;}.cls-7{fill:#dc5181;}.cls-8{stroke:#a83e63;}.cls-9{fill:#ffd817;}.cls-10{stroke:#fff;stroke-width:0.69px;}</style></defs><title>Asset 3</title><g id="Layer_2" data-name="Layer 2"><g id="Layer_1-2" data-name="Layer 1"><path class="cls-1" d="M493.11,688.09H276.27s17.9-41.53,38.45-50.15,31.17,8.67,52.39-15.25,47.75-110.42,90.19-98-1.81,110,14.59,105.93c34.49-8.62,26.52,40,21.22,57.45"/><path class="cls-2" d="M457.3,524.71S432.19,606.1,396.66,688.1"/><path class="cls-2" d="M393,579.27s-7.8,59.26-12.48,108.83"/><path class="cls-2" d="M471.7,599.77s-41.19,64.54-58.37,89.5"/><path class="cls-1" d="M119.24,686.54S91.63,653.07,63,641.47-12.9,599,3.29,575.87s49.46,13.35,66.3,14.88-68.69-65.3-62.67-94c4.68-22.38,29.62-2.29,43.71-7.81s-62-73.41-36.51-97.62c18.29-17.38,50.56-5.64,62.7,37.28C85.14,458,91.06,493,113.07,480.67s39.71-4.89,30.38,17.43-29.63,77.22-11.1,75.23,25.79-27.45,51.53-17.55,27.23,52.6,7.44,69.23-59.09,45.89-72.08,61.53"/><path class="cls-2" d="M23.29,385.41s101.1,173.16,95.95,301.13"/><path class="cls-3" d="M128.09,700.61c4.76,0,15.6-107.48,24.2-240.06H135.05c-8.61,132.58-11.72,240.06-7,240.06"/><path class="cls-3" d="M233.51,700.61c-4.76,0-15.6-107.48-24.2-240.06h17.24c8.61,132.58,11.72,240.06,7,240.06"/><path class="cls-4" d="M252.11,456.72c0,9.15-28.22,12.87-67.61,12.87s-75-3.72-75-12.87,31.93-16.56,71.31-16.56,71.31,7.42,71.31,16.56"/><line class="cls-5" x1="68.7" y1="688.09" x2="521.62" y2="688.09"/><path class="cls-6" d="M352.19,524.71S300,638.1,302.46,651.53s7,23.87,21.38,28.85,19.4,4.47,15.42,7.46-38.46,1-50.07-3-24.85-8.69-20.05-14.92c8-10.44,13-2.32,16.41-42.77,2.64-31.41,19.9-102.45,19.9-102.45Z"/><path class="cls-6" d="M285.55,524.71s-41.78,125.22-45.76,136.71,0,19.34,6,27.85,18.29,14.48,16.11,18.46-33-9-46-15.42-8.95-14.53,0-30.89,27.85-142.18,27.85-142.18Z"/><path class="cls-7" d="M222.55,336.44s1.56,23.65,13,25.63,104.52,24.55,127.53,57-6.63,114.06-6.63,114.06-85.31,8-120.9-7.29l18.12-57.69S148.48,455.57,131,430.38s4-92.4,4-92.4Z"/><line class="cls-8" x1="253.72" y1="468.17" x2="289.19" y2="471.16"/><path class="cls-3" d="M338,159.17c0,4.72-4.81,8.54-10.76,8.54s-10.76-3.82-10.76-8.54,4.81-8.54,10.76-8.54S338,154.46,338,159.17"/><path class="cls-6" d="M212.94,204.58l13.39-9.06s15.12,11,26.06,40.56-39.45,10.28-39.45,10.28Z"/><path class="cls-4" d="M126.89,198.45c10.12-2.82,34.32-14.1,44.76-15.09s27.29-.14,33.62,1.25,21.26,7.37,22.59,13.84,12.93,26.69,5,41.28-19.56,42.1-7,66,6.63,17.9-25.2,17.9-75.93,4.31-77.92-7.29,4.14-117.87,4.14-117.87"/><path class="cls-9" d="M365.13,75.6c-2.49-33.32-13.43-45.26-37.8-45.26S292,42.28,289.53,75.6s18.9,34.32,18.9,64.65h37.8c0-30.33,21.38-31.33,18.9-64.65"/><polygon class="cls-4" points="308.43 140.25 346.23 140.25 346.23 158.66 307.27 158.66 308.43 140.25"/><path class="cls-10" d="M310.58,100.8S304,72,310.58,69.13s8.95,10.12,6,11.61-4-13.26,4.15-13.26,9.45,15.25,5.13,15.41-2.32-15.91,6-15.41,6.13,14.75,2.82,14.42,1-15.09,7.46-12.6-1.49,31.5-1.49,31.5"/><rect class="cls-9" x="325.79" width="2.82" height="17.24"/><polygon class="cls-9" points="298.48 25.11 289.86 10.18 292.3 8.77 300.92 23.7 298.48 25.11"/><rect class="cls-9" x="270.59" y="31.43" width="2.82" height="17.24" transform="matrix(0.5, -0.87, 0.87, 0.5, 101.31, 255.58)"/><rect class="cls-9" x="379.41" y="94.27" width="2.82" height="17.24" transform="translate(101.36 381.3) rotate(-60.01)"/><rect class="cls-9" x="254.67" y="70.36" width="17.24" height="2.82"/><rect class="cls-9" x="380.33" y="70.36" width="17.24" height="2.82"/><rect class="cls-9" x="262.99" y="102.18" width="17.24" height="2.82" transform="translate(-15.42 149.57) rotate(-29.98)"/><rect class="cls-9" x="371.82" y="39.34" width="17.24" height="2.82" transform="translate(30.53 195.54) rotate(-29.98)"/><rect class="cls-9" x="348.94" y="16.74" width="17.24" height="2.82" transform="matrix(0.5, -0.87, 0.87, 0.5, 162.81, 318.57)"/><path class="cls-6" d="M126.89,198.45c20.64,0,20.89,26.85,18.65,39.78s-13.73,63.41-8.85,64.9,78.2,12.94,87.17,14.18S244,322.78,242,325.52s-109.66,0-129.3,0-10.21-48-7.72-66.4,7-60.67,21.88-60.67"/><polygon class="cls-4" points="418.75 342.18 80.73 342.18 77.16 324.39 422.32 324.39 418.75 342.18"/><path class="cls-3" d="M105.11,700.93c4.77,0,8.63-160.62,8.63-358.75H96.49c0,198.13,3.86,358.75,8.62,358.75"/><path class="cls-3" d="M394.37,700.93c4.76,0,8.61-160.62,8.61-358.75H385.75c0,198.13,3.85,358.75,8.62,358.75"/><path class="cls-4" d="M339.26,687.84c4-3-1-2.49-15.41-7.46-9.58-3.3-14.75-9-17.89-16.41-12.45,3.56-20,.38-27.58-3-1.91,3.75-7.36,6.23-9.25,8.95-4.47,6.47,8.46,11,20.07,14.92s46.09,6,50.06,3"/><path class="cls-4" d="M215.92,692.31c12.93,6.47,43.77,19.4,46,15.42s-10.14-10-16.11-18.46a44.28,44.28,0,0,1-6.42-12c-11.21.53-20.51-4.59-26.79-9.58-6.34,12.25-7.78,19,3.37,24.6"/><path class="cls-3" d="M343,324.4H209.31l12.42-90.83a6.69,6.69,0,0,1,6.63-5.78H348.51a6.67,6.67,0,0,1,6.62,7.59Z"/><path class="cls-6" d="M222.39,85.3s4.72,55.21-2.74,62.67-18.15,10.69-18.15,10.69l1.08,24.27c.13.92,2.83,3.55,2.7,4.48l-1.36,9.49a3.13,3.13,0,0,1-4.43,2.38l-22.25-10.61a9.8,9.8,0,0,1-5.59-8.84v-8.58A199.9,199.9,0,0,0,175,137c.25-19.13-3.51-25.43,7.83-26.36s36.51-14.91,39.54-25.36"/><path class="cls-3" d="M220.64,87s-2.48,15.1-20.14,20.86-24.62,3-25.12,7.49,0,54.46-2.23,55.45-27.11,4.48-27.35,0-1.25-38.29-2.24-47.49-2.49-42.14,25.36-55.89,55,3.41,60.43,11.62,6.71,26.86,4.72,43.52c-1.42,12-.35,27.74.38,35.71a5.7,5.7,0,0,1-4.56,6.1L202,170.05l-.5-11.39a22.51,22.51,0,0,0,16.9-18.4c2.74-15.67,6-42.78,2.24-53.22"/></g></g></svg>