<svg id="Layer_1" data-name="Layer 1" xmlns="http://www.w3.org/2000/svg" viewBox="0 0 220 220"><defs><style>.cls-1{fill:#4633ff;}</style></defs><title>Artboard 12</title><path class="cls-1" d="M59.18,102.44h-8l-9.6,16.61q-6.78,11.81-16.09,11.8a12.62,12.62,0,0,1-9.58-4.1A14.23,14.23,0,0,1,12,116.59a17,17,0,0,1,3-9.49,24,24,0,0,1,8.14-7.59,27.77,27.77,0,0,1,8.55-3.1,69.27,69.27,0,0,1,12.5-.9h2.14l2.3-4.2Q53.4,82.52,60.31,79.6A29.9,29.9,0,0,1,71.9,77.71a4.5,4.5,0,0,1,2.87.82,2.69,2.69,0,0,1,1,2.26,4.49,4.49,0,0,1-.35,1.56l-.26.67-5,12.49h3c2.16,0,3.25.94,3.25,2.82a3.78,3.78,0,0,1-1.34,2.91,4.67,4.67,0,0,1-3.24,1.2H67.41l-3.22,7.92h5.48q3.26,0,3.25,2.78a3.81,3.81,0,0,1-1.34,2.94,4.62,4.62,0,0,1-3.24,1.21h-7A6.22,6.22,0,0,1,57.28,116a4.11,4.11,0,0,1-1.58-3.35,13,13,0,0,1,1.19-4.52Zm-16.82,0H39.9q-8.3,0-13.16,3.08a15.51,15.51,0,0,0-4.95,4.92,11.31,11.31,0,0,0-1.84,6,6.8,6.8,0,0,0,1.77,4.71,5.58,5.58,0,0,0,4.29,2q4.38,0,7.74-5.79ZM62,95.51l4.17-10.29a8.75,8.75,0,0,0-5.17,2,25.1,25.1,0,0,0-4.8,6.36l-1.19,2Z"/><path class="cls-1" d="M86.78,103l-.55,1.34q-1.28,2.86-3.63,2.87a3.16,3.16,0,0,1-2.13-.83,2.46,2.46,0,0,1-.94-1.9,6.6,6.6,0,0,1,.84-2.7L84.23,94c.94-1.88,2.12-2.81,3.53-2.81a2.81,2.81,0,0,1,1.95.73,2.32,2.32,0,0,1,.81,1.76,7.47,7.47,0,0,1-.18,1.13,6.13,6.13,0,0,0-.11,1.13,6.45,6.45,0,0,0,1.36,3.74L93.24,102a11.7,11.7,0,0,1,2.52,6.78A7.87,7.87,0,0,1,93,114.84a9.8,9.8,0,0,1-6.79,2.45h-6q-3.69,0-3.69-2.55A3.29,3.29,0,0,1,77.82,112a5.76,5.76,0,0,1,3.59-1h3.37c2.68,0,4-1,4-2.93a5.66,5.66,0,0,0-.76-2.52Z"/><path class="cls-1" d="M115.54,105l4.49,7a4.29,4.29,0,0,1,.84,2.14,3.27,3.27,0,0,1-1.12,2.41,3.54,3.54,0,0,1-2.5,1.07,2.55,2.55,0,0,1-2.12-1.3l-.35-.52-6.72-10.06-3.25,8q-1.56,3.85-4.58,3.85a3,3,0,0,1-2.1-.77,2.41,2.41,0,0,1-.86-1.87,5.13,5.13,0,0,1,.47-1.94l.31-.78,12.41-30.59.32-.78c.89-2.16,2.31-3.25,4.26-3.25a2.93,2.93,0,0,1,2.09.82,2.55,2.55,0,0,1,.87,1.94,5.53,5.53,0,0,1-.46,2l-.32.78-7.4,18.21,6.53-4.84a6.2,6.2,0,0,1,3.48-1.51,2.83,2.83,0,0,1,2,.78,2.59,2.59,0,0,1,.81,1.94,4.46,4.46,0,0,1-2.15,3.54l-.66.49Z"/><path class="cls-1" d="M131.45,111h3.28q3.65,0,3.65,2.58a3.26,3.26,0,0,1-1.29,2.75,5.8,5.8,0,0,1-3.61,1h-4.61a6.75,6.75,0,0,1-4-1.05,3.29,3.29,0,0,1-1.47-2.84A6.6,6.6,0,0,1,124,111l4.78-11.77.32-.82q1.34-3.27,4.29-3.27a3,3,0,0,1,2.11.81,2.57,2.57,0,0,1,.88,1.94,8.51,8.51,0,0,1-.78,2.84Zm3.83-25.11A4,4,0,1,1,132.42,87,3.88,3.88,0,0,1,135.28,85.86Z"/><path class="cls-1" d="M150.3,111h7.3c2.44,0,3.65.86,3.65,2.58A3.26,3.26,0,0,1,160,116.3a5.8,5.8,0,0,1-3.61,1H142.84a4.25,4.25,0,0,1-2.85-.9,3,3,0,0,1-1.06-2.44c0-1,.65-2.1,1.94-3.36l9.48-9.13-3.21.11h-.73c-2.11,0-3.16-.87-3.16-2.61a3.56,3.56,0,0,1,1.25-2.74,4.4,4.4,0,0,1,3-1.11h9.74q4,0,4,3.42a5.12,5.12,0,0,1-1.82,3.56Z"/><path class="cls-1" d="M173.46,111h7.3q3.66,0,3.66,2.58a3.26,3.26,0,0,1-1.29,2.75,5.82,5.82,0,0,1-3.61,1H166a4.28,4.28,0,0,1-2.86-.9,3.05,3.05,0,0,1-1.06-2.44q0-1.47,1.95-3.36l9.48-9.13-3.22.11h-.73c-2.1,0-3.16-.87-3.16-2.61a3.56,3.56,0,0,1,1.25-2.74,4.42,4.42,0,0,1,3-1.11h9.75c2.68,0,4,1.14,4,3.42a5.09,5.09,0,0,1-1.83,3.56Z"/><path class="cls-1" d="M192.25,110a4,4,0,1,1-4.06,4,3.85,3.85,0,0,1,1.19-2.84A3.9,3.9,0,0,1,192.25,110Zm13-23.28-6.35,17.19q-1.62,4.41-3.88,4.41a2.63,2.63,0,0,1-1.93-.8,2.66,2.66,0,0,1-.8-2,7.56,7.56,0,0,1,.32-1.89l5.48-19.83q1.05-3.7,4.09-3.71a3.78,3.78,0,0,1,2.69,1A3.39,3.39,0,0,1,206,83.72,9.44,9.44,0,0,1,205.26,86.7Z"/><path class="cls-1" d="M114.72,134.11V125h-3.25v-1.27h4.81v10.47a1.66,1.66,0,0,0,1.81,1.89,4.2,4.2,0,0,0,1.72-.42l.39,1.17a5.51,5.51,0,0,1-2.45.55C115.79,137.41,114.72,136.28,114.72,134.11Z"/><path class="cls-1" d="M122.68,132.58a4.6,4.6,0,0,1,4.67-4.79,4,4,0,0,1,4.19,4.3,5.89,5.89,0,0,1-.08.94h-7.75v-1.21h6.83l-.4.44c0-2.17-1.07-3.25-2.75-3.25s-3.17,1.29-3.17,3.57a3.33,3.33,0,0,0,3.59,3.58,5.06,5.06,0,0,0,2.79-.86l.56,1a6.2,6.2,0,0,1-3.54,1.1A4.64,4.64,0,0,1,122.68,132.58Z"/><path class="cls-1" d="M134.22,134.8c0-2.05,1.92-3.05,6.66-3.43a2.18,2.18,0,0,0-2.43-2.3,6.38,6.38,0,0,0-3.21,1.1l-.62-1.06a8.06,8.06,0,0,1,4.09-1.32c2.51,0,3.73,1.49,3.73,3.77v5.62h-1.3l-.13-1.24H141a6.18,6.18,0,0,1-3.6,1.47C135.63,137.41,134.22,136.45,134.22,134.8Zm6.66,0v-2.38c-3.92.3-5.11,1.07-5.11,2.28,0,1,.94,1.45,2,1.45A5,5,0,0,0,140.88,134.79Z"/><path class="cls-1" d="M146.76,128h1.31l.15,2.17h0a4.85,4.85,0,0,1,4.1-2.39,3.78,3.78,0,0,1,1.81.38l-.36,1.34a4.55,4.55,0,0,0-1.7-.31c-1.38,0-2.68.7-3.77,2.62v5.36h-1.57Z"/><path class="cls-1" d="M157.1,128h1.28l.14,1.55h.07a4.75,4.75,0,0,1,3.45-1.77c2.17,0,3.17,1.28,3.17,3.7v5.69h-1.57v-5.49c0-1.73-.6-2.54-2.09-2.54-1.09,0-1.83.54-2.88,1.64v6.39H157.1Z"/><path class="cls-1" d="M172.6,129.28h-4.24V128h5.81v9.17H172.6Zm-.62-4.4a1.25,1.25,0,1,1,1.25,1.21A1.18,1.18,0,0,1,172,124.88Z"/><path class="cls-1" d="M179.74,128H181l.13,1.55h.08a4.73,4.73,0,0,1,3.45-1.77c2.17,0,3.17,1.28,3.17,3.7v5.69h-1.57v-5.49c0-1.73-.6-2.54-2.09-2.54-1.1,0-1.83.54-2.89,1.64v6.39h-1.56Z"/><path class="cls-1" d="M190.66,138.86a2.55,2.55,0,0,1,1.51-2v-.07a1.68,1.68,0,0,1-.95-1.51,2.23,2.23,0,0,1,1.1-1.72v-.07a3,3,0,0,1-1.13-2.38,3.36,3.36,0,0,1,3.6-3.28,3.77,3.77,0,0,1,1.36.22h3.79v1.27h-2.38a2.73,2.73,0,0,1,.77,1.85c0,2-1.56,3.15-3.54,3.15a4.1,4.1,0,0,1-1.55-.34,1.26,1.26,0,0,0-.72,1.05c0,.72.7,1.06,1.91,1.06h2.06c2.35,0,3.48.6,3.48,2.15,0,1.72-2,3.21-5.09,3.21C192.2,141.41,190.66,140.48,190.66,138.86Zm7.79-.42c0-.86-.7-1.11-2.1-1.11h-1.79a5.24,5.24,0,0,1-1.39-.15c-.87.47-1.17,1-1.17,1.53,0,1,1,1.56,3,1.56C197.13,140.27,198.45,139.39,198.45,138.44Zm-1.55-7.37a2.11,2.11,0,1,0-2.11,2.17A2.07,2.07,0,0,0,196.9,131.07Z"/></svg>