<svg xmlns="http://www.w3.org/2000/svg" xmlns:xlink="http://www.w3.org/1999/xlink" viewBox="0 0 779.19 724.98"><defs><style>.cls-1{fill:none;}.cls-2{fill:#000f35;}.cls-3{fill:#07185b;}.cls-4{fill:#0e257a;}.cls-5{fill:#0b1d6b;}.cls-6{fill:#08175e;}.cls-7{fill:#0b1f70;}.cls-8{fill:#070a5c;}.cls-9{fill:#0b1e6d;}.cls-10{fill:#0a1a66;}.cls-11{fill:#0b1b68;}.cls-12{fill:#060959;}.cls-13{fill:#070a5a;}.cls-14{fill:#0b1d68;}.cls-15{fill:#070a59;}.cls-16{fill:#070a5b;}.cls-17{fill:#0c1f72;}.cls-18{fill:#091968;}.cls-19{fill:#060958;}.cls-20{fill:#0b1a59;}.cls-21{fill:#0d206d;}.cls-22{fill:#0d106b;}.cls-23{fill:#2240a0;}.cls-24{fill:#0a0d56;}.cls-25{fill:#3750cc;}.cls-26{fill:#ffd44e;}.cls-27{fill:#fff;}.cls-28{clip-path:url(#clip-path);}.cls-29{fill:#917536;}.cls-30{fill:#2a44c6;}.cls-31{fill:#203a8e;}.cls-32{fill:#d6b4b2;}.cls-33{fill:#ff96ab;}.cls-34{fill:#0f2a7f;}.cls-35{fill:#ffd5ce;}.cls-36{fill:#dd859e;}.cls-37{clip-path:url(#clip-path-2);}.cls-38{fill:#09245b;}.cls-39{fill:#052351;}.cls-40{fill:#050853;}.cls-41{fill:#060956;}.cls-42{fill:#06244f;}.cls-43{fill:#0a1866;}.cls-44{fill:#050652;}.cls-45{fill:#060957;}.cls-46{fill:#060955;}.cls-47{fill:#091b60;}.cls-48{fill:#e5c1bd;}</style><clipPath id="clip-path"><path class="cls-1" d="M70,302.06c2.37-28.21,5.6-56.22,16-83.23,20.46-53,65.61-94.2,118-128.09,48.49-31.37,107.32-59.3,172.08-56.28C419,36.46,461.21,53.78,482.91,85c19.54,28.09,22.86,61.66,26.07,93,2.52,24.67,3.79,50.66,11.8,75a66.8,66.8,0,0,1,3.25,8.85,117.18,117.18,0,0,0,5.33,11.3,94.39,94.39,0,0,0,12.84,18.5l11.28,12.52c5.66,4.71-3.4,11.48-9.07,6.81-11-9.06-29.63-7.44-43.76-5.95a128.56,128.56,0,0,0-33.57,7.87c-19,7.5-33.94,19.75-46.15,33.55-25.74,29.1-41.5,63.56-71.19,90.41-19.41,17.55-45.07,32.06-71.51,41.71-27.66,10.11-59.38,15.21-89.45,8.58-27.47-6.05-52.92-19.36-73.49-35.29-23-17.82-36.19-39.27-42.47-64.4-7-28.16-5.25-57-2.87-85.32"/></clipPath><clipPath id="clip-path-2"><path class="cls-1" d="M617.62,351.32h0a.68.68,0,0,1-.66-.7.69.69,0,0,1,.69-.66h0a.68.68,0,0,1,.65.71.67.67,0,0,1-.67.65"/></clipPath></defs><title>Asset 3</title><g id="Layer_2" data-name="Layer 2"><g id="Layer_1-2" data-name="Layer 1"><path class="cls-2" d="M69.26,301.67c2.37-28.21,5.6-56.22,16-83.24,20.46-53,65.61-94.19,118-128.09C251.79,59,310.62,31.05,375.38,34.07c42.88,2,85.15,19.32,106.84,50.49,19.54,28.09,22.86,61.66,26.07,93,2.52,24.67,3.79,50.66,11.8,75a69,69,0,0,1,3.26,8.86,118.38,118.38,0,0,0,5.32,11.31,94.92,94.92,0,0,0,12.84,18.49l11.28,12.52c5.66,4.71-3.4,11.48-9.07,6.81-11-9.06-29.63-7.44-43.76-5.95a127.86,127.86,0,0,0-33.57,7.87c-19,7.5-33.94,19.75-46.15,33.55-25.74,29.1-41.5,63.56-71.19,90.41-19.41,17.55-45.07,32.06-71.5,41.72-27.67,10.1-59.38,15.2-89.46,8.57-27.47-6.05-52.92-19.36-73.49-35.3-23-17.81-36.19-39.26-42.47-64.4-7-28.15-5.25-57-2.87-85.31"/><path class="cls-3" d="M521.81,269.46h0a.84.84,0,0,1,0-1.68h0a.85.85,0,0,1,.71.44.86.86,0,0,0-.57.76.92.92,0,0,0,.1.44.86.86,0,0,1-.28,0"/><path class="cls-3" d="M523.09,279.7h0a.85.85,0,0,1,0-1.69h0a.84.84,0,0,1,.81.88.76.76,0,0,1-.21.52h0a.82.82,0,0,0-.63.29"/><path class="cls-4" d="M421.21,171.39a.85.85,0,1,0,1.69.06.84.84,0,0,0-.81-.87.85.85,0,0,0-.88.81Z"/><path class="cls-4" d="M523.87,268.35h0a.85.85,0,0,1,0-1.69h0a.85.85,0,0,1,0,1.69"/><path class="cls-4" d="M522.88,280.22a.85.85,0,1,0,.88-.81.84.84,0,0,0-.88.81"/><path class="cls-4" d="M508.28,278.76a.84.84,0,1,0,.87-.81.83.83,0,0,0-.87.81Z"/><path class="cls-5" d="M519.7,262.4h0a.84.84,0,0,1-.81-.87.86.86,0,0,1,.85-.81h0a.85.85,0,0,1,0,1.69"/><path class="cls-6" d="M519.9,264.78h0a.85.85,0,0,1,0-1.69h0a.85.85,0,0,1,0,1.69"/><path class="cls-7" d="M533,286.51h0a.85.85,0,0,1,0-1.69h0a.85.85,0,0,1,0,1.69"/><path class="cls-8" d="M520.65,267h0a.85.85,0,0,1,0-1.69h0a.85.85,0,0,1,0,1.69"/><path class="cls-3" d="M522.83,269.86h0a.85.85,0,0,1-.71-.44.87.87,0,0,0,.57-.77.91.91,0,0,0-.1-.43.81.81,0,0,1,.27-.05h0a.83.83,0,0,1,.81.87.85.85,0,0,1-.85.81"/><path class="cls-9" d="M522.09,269.42a.92.92,0,0,1-.1-.44.86.86,0,0,1,.57-.76.91.91,0,0,1,.1.43.87.87,0,0,1-.57.77"/><path class="cls-5" d="M519.94,291.54h0a.85.85,0,0,1-.81-.87.86.86,0,0,1,.85-.82h0a.9.9,0,0,1,.58.27.91.91,0,0,0,.2.36,1,1,0,0,1,0,.25.84.84,0,0,1-.84.81"/><path class="cls-10" d="M525.6,279.68h0a.85.85,0,0,1,0-1.69h0a.85.85,0,0,1,0,1.69"/><path class="cls-10" d="M528.53,282h0a.85.85,0,0,1-.81-.88.84.84,0,0,1,.84-.81h0a.85.85,0,0,1,0,1.69"/><path class="cls-11" d="M536.82,293.61h0a.85.85,0,0,1,0-1.69h0a.85.85,0,0,1,0,1.69"/><path class="cls-11" d="M526,291.92h0a.85.85,0,0,1,0-1.69h0a.85.85,0,0,1,0,1.69"/><path class="cls-4" d="M464.6,258.84a.85.85,0,0,0,1.69.07.85.85,0,1,0-1.69-.07Z"/><path class="cls-12" d="M520.71,273.24h0a.84.84,0,0,1-.81-.88.83.83,0,0,1,.84-.81h0a.85.85,0,0,1,0,1.69"/><path class="cls-13" d="M520.42,296.31h0a.84.84,0,0,1-.81-.88.87.87,0,0,1,.14-.42h0a.83.83,0,0,0,.71-.39h0a.85.85,0,0,1,.81.88.84.84,0,0,1-.84.81"/><path class="cls-13" d="M519.71,295h0a.85.85,0,0,1,0-1.69h0a.84.84,0,0,1,.81.88.75.75,0,0,1-.13.42h0a.83.83,0,0,0-.7.39"/><path class="cls-14" d="M519.71,295h0a.83.83,0,0,1,.7-.39h0a.83.83,0,0,1-.71.39"/><path class="cls-15" d="M529,287.48h0a.85.85,0,0,1,0-1.69h0a.85.85,0,0,1,0,1.69"/><path class="cls-12" d="M519.72,277.34h0a.85.85,0,0,1-.81-.88.84.84,0,0,1,.84-.81h0a.85.85,0,0,1,0,1.69"/><path class="cls-16" d="M532.42,300.84h0a.85.85,0,0,1,0-1.69h0a.85.85,0,0,1,0,1.69"/><path class="cls-12" d="M521.37,290.75h0a.86.86,0,0,1-.59-.27.8.8,0,0,0-.2-.36,1,1,0,0,1,0-.25.85.85,0,0,1,.85-.81h0a.85.85,0,0,1,0,1.69"/><path class="cls-17" d="M520.75,290.48a.91.91,0,0,1-.2-.36.8.8,0,0,1,.2.36"/><path class="cls-12" d="M524.38,292.42h0a.85.85,0,0,1-.81-.87.83.83,0,0,1,.13-.41.58.58,0,0,0,.19,0h0a.84.84,0,0,0,.72-.41.83.83,0,0,1,.62.84.84.84,0,0,1-.85.81"/><path class="cls-12" d="M523.67,291.14a.82.82,0,0,1-.62-.84.84.84,0,0,1,.84-.81h0a.83.83,0,0,1,.81.87.73.73,0,0,1-.12.41.58.58,0,0,0-.19,0h0a.82.82,0,0,0-.71.4"/><path class="cls-18" d="M523.89,291.18h0a.58.58,0,0,1-.19,0,.82.82,0,0,1,.71-.4h0a.58.58,0,0,1,.19,0,.84.84,0,0,1-.72.41"/><path class="cls-19" d="M524.06,275.71h0a.85.85,0,0,1,0-1.69h0a.85.85,0,0,1,0,1.69"/><path class="cls-19" d="M524.91,281.79h0a.82.82,0,0,1-.8-.76.87.87,0,0,0,.5-.74.37.37,0,0,0,0-.11.82.82,0,0,1,.35-.08h0a.84.84,0,0,1,.81.88.88.88,0,0,1-.19.5.89.89,0,0,0-.39.27.75.75,0,0,1-.26,0"/><path class="cls-4" d="M524.07,281a.45.45,0,0,1,0-.11.85.85,0,0,1,.5-.74.37.37,0,0,1,0,.11.87.87,0,0,1-.5.74"/><path class="cls-19" d="M525.82,283.13h0a.84.84,0,0,1-.81-.88.88.88,0,0,1,.19-.5.81.81,0,0,0,.39-.27.75.75,0,0,1,.26,0h0a.85.85,0,0,1,0,1.69"/><path class="cls-18" d="M525.17,281.75a.89.89,0,0,1,.39-.27.81.81,0,0,1-.39.27"/><path class="cls-12" d="M524.84,270.62h0a.85.85,0,0,1,0-1.69h0a.84.84,0,0,1,.81.87.85.85,0,0,1-.85.81"/><path class="cls-15" d="M526.54,302.87h0a.84.84,0,0,1,0-1.68h0a.84.84,0,0,1,0,1.68"/><path class="cls-12" d="M527.71,290.27h0a.85.85,0,0,1,0-1.69h0a.85.85,0,0,1,0,1.69"/><path class="cls-12" d="M526.68,287.16h0a.85.85,0,0,1,0-1.69h0a.85.85,0,0,1,0,1.69"/><path class="cls-4" d="M447.61,296.27a.85.85,0,1,0,.88-.81.85.85,0,0,0-.88.81Z"/><path class="cls-4" d="M416.59,263.38a.84.84,0,1,0,.87-.81.84.84,0,0,0-.87.81Z"/><path class="cls-4" d="M443,247.53a.85.85,0,0,0,.81.88.86.86,0,0,0,.88-.82.85.85,0,0,0-.81-.87.84.84,0,0,0-.88.81Z"/><path class="cls-4" d="M449.67,243.77a.84.84,0,1,0,.87-.81.84.84,0,0,0-.87.81Z"/><path class="cls-4" d="M482.87,208.5a.85.85,0,1,0,1.69.07.85.85,0,0,0-1.69-.07Z"/><path class="cls-4" d="M481.65,193.5a.84.84,0,1,0,.87-.81.84.84,0,0,0-.87.81Z"/><path class="cls-4" d="M470.7,194.09a.84.84,0,1,0,.88-.81.83.83,0,0,0-.88.81Z"/><path class="cls-4" d="M458.29,181.52a.85.85,0,0,0,.81.87.85.85,0,1,0,.07-1.69.86.86,0,0,0-.88.82Z"/><path class="cls-4" d="M441.9,192.62a.85.85,0,1,0,.88-.81.85.85,0,0,0-.88.81Z"/><path class="cls-4" d="M479.3,176.19a.83.83,0,0,0,.81.87.84.84,0,1,0-.81-.87Z"/><path class="cls-4" d="M397.08,312.89a.85.85,0,1,0,.88-.81.85.85,0,0,0-.88.81Z"/><path class="cls-4" d="M363.16,329.81a.85.85,0,0,0,.82.88.84.84,0,0,0,.87-.81.85.85,0,0,0-1.69-.07Z"/><path class="cls-4" d="M362.65,344.83a.84.84,0,1,0,1.68.06.84.84,0,0,0-1.68-.06Z"/><path class="cls-4" d="M397.45,300.67a.85.85,0,1,0,.88-.81.85.85,0,0,0-.88.81Z"/><path class="cls-4" d="M342.19,349.9a.85.85,0,1,0,.88-.81.85.85,0,0,0-.88.81Z"/><path class="cls-20" d="M358.38,378.35a.84.84,0,1,0,.87-.81.83.83,0,0,0-.87.81Z"/><path class="cls-20" d="M240.58,426.6a.85.85,0,1,0,1.69.07.85.85,0,0,0-1.69-.07Z"/><path class="cls-20" d="M218.06,473.91a.84.84,0,1,0,.87-.81.83.83,0,0,0-.87.81Z"/><path class="cls-20" d="M222.85,473.24a.84.84,0,0,0,.81.88.85.85,0,1,0,.06-1.69.85.85,0,0,0-.87.81Z"/><path class="cls-20" d="M215.91,402.58a.84.84,0,1,0,.88-.81.84.84,0,0,0-.88.81Z"/><path class="cls-20" d="M203.5,390a.86.86,0,0,0,.82.88.85.85,0,0,0,.87-.82.83.83,0,0,0-.81-.87.85.85,0,0,0-.88.81Z"/><path class="cls-20" d="M293.14,347.12a.84.84,0,0,0,.81.88.85.85,0,1,0,.06-1.69.85.85,0,0,0-.87.81Z"/><path class="cls-21" d="M263.21,331.59a.84.84,0,1,0,.87-.81.83.83,0,0,0-.87.81Z"/><path class="cls-21" d="M322.49,261a.85.85,0,1,0,1.69.07.85.85,0,0,0-1.69-.07Z"/><path class="cls-21" d="M412.13,218.12a.84.84,0,0,0,.81.88.84.84,0,1,0-.81-.88Z"/><path class="cls-21" d="M312.68,342a.84.84,0,1,0,.88-.81.84.84,0,0,0-.88.81Z"/><path class="cls-21" d="M350.07,325.6a.85.85,0,0,0,.82.87.84.84,0,0,0,.87-.81.85.85,0,0,0-.81-.88.86.86,0,0,0-.88.82Z"/><path class="cls-21" d="M389.9,286.57a.85.85,0,0,0,1.7.06.85.85,0,0,0-1.7-.06Z"/><path class="cls-21" d="M294.33,266.38a.85.85,0,1,0,1.69.06.85.85,0,0,0-1.69-.06Z"/><path class="cls-21" d="M354.52,322.46a.86.86,0,0,0,.82.88.85.85,0,0,0,.87-.82.84.84,0,0,0-.81-.87.85.85,0,0,0-.88.81Z"/><path class="cls-21" d="M328.62,237.24a.85.85,0,1,0,.88-.81.85.85,0,0,0-.88.81Z"/><path class="cls-21" d="M234.41,330.12a.85.85,0,1,0,.87-.81.84.84,0,0,0-.87.81Z"/><path class="cls-21" d="M271.81,313.69a.84.84,0,0,0,.81.87.85.85,0,1,0-.81-.87Z"/><path class="cls-21" d="M311.64,274.66a.84.84,0,1,0,1.68.06.84.84,0,1,0-1.68-.06Z"/><path class="cls-21" d="M276.6,313a.85.85,0,0,0,1.69.07.85.85,0,0,0-1.69-.07Z"/><path class="cls-4" d="M323.94,105.75a.84.84,0,1,0,1.68.06.84.84,0,0,0-1.68-.06Z"/><path class="cls-4" d="M308.18,102.45a.84.84,0,0,0,1.68.06.84.84,0,1,0-1.68-.06Z"/><path class="cls-4" d="M403.21,176.24a.85.85,0,1,0,.88-.81.85.85,0,0,0-.88.81Z"/><path class="cls-4" d="M429.66,160.39a.85.85,0,0,0,.81.88.85.85,0,1,0,.07-1.69.86.86,0,0,0-.88.81Z"/><path class="cls-4" d="M436.29,156.63a.85.85,0,0,0,.81.88.84.84,0,1,0-.81-.88Z"/><path class="cls-4" d="M434.11,157.26a.85.85,0,1,0,1.69.06.85.85,0,0,0-1.69-.06Z"/><path class="cls-4" d="M434.45,159.73a.85.85,0,0,0,.82.87.84.84,0,1,0,.06-1.68.85.85,0,0,0-.88.81Z"/><path class="cls-4" d="M408.21,72a.85.85,0,1,0,.88-.81.85.85,0,0,0-.88.81Z"/><path class="cls-4" d="M314,164.92a.84.84,0,0,0,1.68.07.84.84,0,1,0-1.68-.07Z"/><path class="cls-4" d="M349.25,77.16a.85.85,0,1,0,.88-.81.84.84,0,0,0-.88.81Z"/><path class="cls-4" d="M336.85,64.58a.84.84,0,1,0,.87-.81.84.84,0,0,0-.87.81Z"/><path class="cls-4" d="M438.57,131.41a.85.85,0,0,0,1.69.06.83.83,0,0,0-.81-.87.85.85,0,0,0-.88.81Z"/><path class="cls-4" d="M427.63,132a.84.84,0,1,0,1.68.07.83.83,0,0,0-.81-.87.84.84,0,0,0-.87.8Z"/><path class="cls-4" d="M380.6,55.48a.85.85,0,1,0,.88-.81.85.85,0,0,0-.88.81Z"/><path class="cls-4" d="M488,141.85a.85.85,0,1,0,.88-.81.85.85,0,0,0-.88.81Z"/><path class="cls-4" d="M477.09,142.44a.85.85,0,1,0,1.69.07.85.85,0,1,0-1.69-.07Z"/><path class="cls-4" d="M398.83,130.53a.85.85,0,1,0,.88-.81.85.85,0,0,0-.88.81Z"/><path class="cls-4" d="M436.23,114.09a.85.85,0,1,0,1.69.07.85.85,0,0,0-1.69-.07Z"/><path class="cls-4" d="M380.49,54.88a.84.84,0,1,0,.87-.81.84.84,0,0,0-.87.81Z"/><path class="cls-4" d="M440.68,111a.84.84,0,0,0,.81.87.84.84,0,0,0,.07-1.68.84.84,0,0,0-.88.81Z"/><path class="cls-4" d="M441,113.43a.85.85,0,1,0,.88-.81.85.85,0,0,0-.88.81Z"/><path class="cls-4" d="M380,69.89a.84.84,0,1,0,.87-.81.84.84,0,0,0-.87.81Z"/><path class="cls-4" d="M359.51,75a.85.85,0,1,0,.88-.81.85.85,0,0,0-.88.81Z"/><path class="cls-22" d="M324,78.92a.85.85,0,1,0,.88-.81.85.85,0,0,0-.88.81Z"/><path class="cls-22" d="M301.79,147.36a.85.85,0,0,0,.81.88.84.84,0,1,0-.81-.88Z"/><path class="cls-22" d="M223.53,135.45a.84.84,0,1,0,.87-.81.84.84,0,0,0-.87.81Z"/><path class="cls-20" d="M274.12,205.7a.85.85,0,1,0,.87-.81.84.84,0,0,0-.87.81Z"/><path class="cls-20" d="M212.84,156.36a.84.84,0,1,0,.87-.8.83.83,0,0,0-.87.8Z"/><path class="cls-20" d="M251.9,274.14a.84.84,0,0,0,.81.88.83.83,0,0,0,.87-.81.84.84,0,0,0-.81-.88.85.85,0,0,0-.87.81Z"/><path class="cls-20" d="M190.61,224.81a.85.85,0,1,0,.88-.81.85.85,0,0,0-.88.81Z"/><path class="cls-20" d="M142.6,229.34a.85.85,0,1,0,.88-.81.85.85,0,0,0-.88.81Z"/><path class="cls-20" d="M131.65,229.93a.85.85,0,1,0,.88-.81.85.85,0,0,0-.88.81Z"/><path class="cls-20" d="M175.68,209.74a.85.85,0,0,0,1.69.06.83.83,0,0,0-.81-.87.84.84,0,0,0-.88.81Z"/><path class="cls-20" d="M208.88,174.47a.85.85,0,1,0,.88-.81.85.85,0,0,0-.88.81Z"/><path class="cls-20" d="M173.5,210.36a.85.85,0,1,0,.88-.81.83.83,0,0,0-.88.81Z"/><path class="cls-20" d="M173.85,212.83a.84.84,0,0,0,1.68.07.84.84,0,0,0-.81-.88.83.83,0,0,0-.87.81Z"/><path class="cls-20" d="M78.36,370.53a.85.85,0,1,0,1.69.07.85.85,0,1,0-1.69-.07Z"/><path class="cls-20" d="M128.24,384.09a.84.84,0,0,0,.81.88.83.83,0,0,0,.87-.81.84.84,0,0,0-.81-.88.85.85,0,0,0-.87.81Z"/><path class="cls-20" d="M217.87,341.21a.83.83,0,0,0,.81.87.84.84,0,1,0-.81-.87Z"/><path class="cls-20" d="M156.59,291.87a.84.84,0,1,0,.87-.81.84.84,0,0,0-.87.81Z"/><path class="cls-20" d="M155.82,448.67a.85.85,0,1,0,.88-.8.84.84,0,0,0-.88.8Z"/><path class="cls-20" d="M195.65,409.65a.84.84,0,0,0,.81.88.86.86,0,0,0,.88-.81.85.85,0,1,0-1.69-.07Z"/><path class="cls-20" d="M134.37,360.32a.85.85,0,0,0,.8.88.86.86,0,0,0,.88-.82.84.84,0,1,0-1.68-.06Z"/><path class="cls-20" d="M117.38,397.74a.85.85,0,1,0,.88-.81.84.84,0,0,0-.88.81Z"/><path class="cls-20" d="M86.35,364.85a.85.85,0,0,0,1.69.07.85.85,0,1,0-1.69-.07Z"/><path class="cls-20" d="M152.63,310a.85.85,0,0,0,.82.87.84.84,0,1,0,.06-1.68.85.85,0,0,0-.88.81Z"/><path class="cls-20" d="M117.26,345.87a.84.84,0,1,0,.87-.81.83.83,0,0,0-.87.81Z"/><path class="cls-23" d="M377.93,103.14c11.58.45,10.89,18.45-.7,18s-10.89-18.45.7-18Z"/><path class="cls-23" d="M411,122.45a41,41,0,0,0-2.08-4.68,28.1,28.1,0,0,0-5.46-7.49c-1.71,5.08.71,11.74,7.54,12.17Z"/><path class="cls-24" d="M386.85,173.11a.51.51,0,0,0,1,0,.51.51,0,1,0-1,0Z"/><path class="cls-24" d="M350.3,143.68a.51.51,0,0,0,.49.53.51.51,0,0,0,0-1,.51.51,0,0,0-.53.48Z"/><path class="cls-24" d="M321.49,143.56a.85.85,0,0,0,1.69.07.85.85,0,0,0-.81-.88.84.84,0,0,0-.88.81Z"/><polygon class="cls-25" points="265.06 302.26 262.22 300.62 262.64 303.87 260.21 306.07 263.44 306.67 264.77 309.66 266.33 306.78 269.6 306.43 267.34 304.05 268.02 300.85 265.06 302.26 265.06 302.26"/><polygon class="cls-25" points="209.71 452.92 205.37 450.42 206.03 455.38 202.3 458.74 207.23 459.65 209.27 464.23 211.66 459.82 216.64 459.3 213.2 455.66 214.24 450.76 209.71 452.92 209.71 452.92"/><polygon class="cls-25" points="476.6 124.92 472.26 122.42 472.91 127.39 469.19 130.74 474.12 131.66 476.16 136.23 478.55 131.83 483.53 131.31 480.08 127.67 481.13 122.77 476.6 124.92 476.6 124.92"/><polygon class="cls-25" points="477.58 243.61 474.37 241.76 474.85 245.43 472.11 247.91 475.74 248.58 477.25 251.96 479.02 248.71 482.7 248.32 480.15 245.63 480.92 242.01 477.58 243.61 477.58 243.61"/><polygon class="cls-26" points="393.26 333.38 390.42 331.74 390.84 334.99 388.41 337.19 391.63 337.78 392.97 340.78 394.53 337.9 397.8 337.55 395.54 335.17 396.22 331.97 393.26 333.38 393.26 333.38"/><polygon class="cls-25" points="198.48 131.67 195.13 129.74 195.64 133.56 192.77 136.15 196.56 136.85 198.13 140.38 199.97 136.98 203.81 136.58 201.16 133.78 201.96 130.01 198.48 131.67 198.48 131.67"/><polygon class="cls-26" points="344.37 61.73 341.71 60.2 342.11 63.24 339.83 65.3 342.85 65.86 344.1 68.67 345.57 65.97 348.62 65.64 346.51 63.41 347.14 60.41 344.37 61.73 344.37 61.73"/><polygon class="cls-27" points="181.74 362.05 181.12 360.31 180.11 361.86 178.27 361.92 179.44 363.34 178.92 365.11 180.64 364.45 182.16 365.49 182.06 363.65 183.52 362.52 181.74 362.05 181.74 362.05"/><polygon class="cls-27" points="420.74 191.65 420.12 189.92 419.12 191.47 417.28 191.52 418.44 192.95 417.93 194.72 419.64 194.05 421.17 195.09 421.06 193.25 422.52 192.12 420.74 191.65 420.74 191.65"/><polygon class="cls-27" points="220.52 204.93 219.9 203.19 218.9 204.74 217.06 204.79 218.22 206.22 217.7 208 219.43 207.33 220.95 208.37 220.84 206.52 222.3 205.4 220.52 204.93 220.52 204.93"/><polygon class="cls-26" points="333.81 211.19 331.64 209.94 331.97 212.43 330.11 214.1 332.57 214.56 333.59 216.85 334.79 214.65 337.28 214.38 335.56 212.57 336.08 210.12 333.81 211.19 333.81 211.19"/><polygon class="cls-26" points="86.91 339.6 82.57 337.09 83.22 342.06 79.5 345.42 84.43 346.33 86.47 350.91 88.86 346.5 93.84 345.98 90.39 342.34 91.43 337.44 86.91 339.6 86.91 339.6"/><path class="cls-27" d="M505.58,270.47a1.34,1.34,0,0,1-.1,2.68,1.34,1.34,0,0,1,.1-2.68Z"/><path class="cls-27" d="M370,267.84a1.34,1.34,0,0,1-.11,2.67,1.34,1.34,0,0,1,.11-2.67Z"/><path class="cls-27" d="M418.87,68a1.34,1.34,0,0,1-.1,2.68,1.34,1.34,0,0,1,.1-2.68Z"/><path class="cls-27" d="M271.72,155.07a1.34,1.34,0,0,1-.11,2.67,1.34,1.34,0,0,1,.11-2.67Z"/><path class="cls-27" d="M155.55,157.66a1.34,1.34,0,0,1-.11,2.68,1.34,1.34,0,0,1,.11-2.68Z"/><path class="cls-27" d="M238.5,342.15a1.34,1.34,0,0,1-.11,2.68,1.34,1.34,0,0,1,.11-2.68Z"/><path class="cls-27" d="M156.74,423.77a1.34,1.34,0,0,1-.11,2.68,1.34,1.34,0,0,1,.11-2.68Z"/><path class="cls-27" d="M119.43,327.67a1.34,1.34,0,0,1-.11,2.67,1.34,1.34,0,0,1,.11-2.67Z"/><path class="cls-27" d="M83.07,389.64a1.34,1.34,0,0,1-.1,2.67,1.34,1.34,0,0,1,.1-2.67Z"/><path class="cls-27" d="M433.18,295.31a1.34,1.34,0,0,1-.1,2.68,1.34,1.34,0,0,1,.1-2.68Z"/><path class="cls-27" d="M278.08,243.49a.67.67,0,0,1-.06,1.33.67.67,0,0,1,.06-1.33Z"/><path class="cls-27" d="M275.5,240.93a1.34,1.34,0,0,1-.11,2.67,1.34,1.34,0,0,1,.11-2.67Z"/><path class="cls-27" d="M327,87.59a1.34,1.34,0,0,1-.11,2.67,1.34,1.34,0,0,1,.11-2.67Z"/><path class="cls-27" d="M476.25,153.25a1.34,1.34,0,0,1-.11,2.68,1.34,1.34,0,0,1,.11-2.68Z"/><path class="cls-27" d="M314,305.83a1.34,1.34,0,0,1-.11,2.67,1.34,1.34,0,0,1,.11-2.67Z"/><path class="cls-27" d="M257.65,468.79a1.34,1.34,0,0,1-.11,2.68,1.34,1.34,0,0,1,.11-2.68Z"/><path class="cls-26" d="M419.2,242.09a1.34,1.34,0,0,1-.11,2.67,1.34,1.34,0,0,1,.11-2.67Z"/><path class="cls-26" d="M207.74,398.09a1.34,1.34,0,0,1-.11,2.68,1.34,1.34,0,0,1,.11-2.68Z"/><path class="cls-26" d="M126.66,370.81a1.34,1.34,0,0,1-.1,2.68,1.34,1.34,0,0,1,.1-2.68Z"/><path class="cls-26" d="M180.72,289.89a1.34,1.34,0,0,1-.1,2.68,1.34,1.34,0,0,1,.1-2.68Z"/><path class="cls-26" d="M250,186.36a1.34,1.34,0,0,1-.11,2.67,1.34,1.34,0,0,1,.11-2.67Z"/><path class="cls-26" d="M438.33,95.52a1.34,1.34,0,0,1-.1,2.67,1.34,1.34,0,0,1,.1-2.67Z"/><path class="cls-26" d="M471.29,188.78a1.34,1.34,0,0,1-.11,2.67,1.34,1.34,0,0,1,.11-2.67Z"/><path class="cls-26" d="M301.33,128.55a1.34,1.34,0,0,1-.11,2.67,1.34,1.34,0,0,1,.11-2.67Z"/><path class="cls-26" d="M227.19,129.22a1.34,1.34,0,0,1-.1,2.67,1.34,1.34,0,0,1,.1-2.67Z"/><path class="cls-26" d="M373.68,218.88a1.34,1.34,0,0,1-.1,2.67,1.34,1.34,0,0,1,.1-2.67Z"/><path class="cls-26" d="M227.31,263.15a1.34,1.34,0,0,1-.11,2.67,1.34,1.34,0,0,1,.11-2.67Z"/><path class="cls-26" d="M349.46,335.79a1.34,1.34,0,0,1-.1,2.67,1.34,1.34,0,0,1,.1-2.67Z"/><path class="cls-26" d="M149.06,460.08a1.34,1.34,0,0,1-.1,2.67,1.34,1.34,0,0,1,.1-2.67Z"/><polygon class="cls-25" points="421.07 193.52 471.42 191.71 476.51 153.29 475.98 153.22 470.95 191.19 421.05 192.98 421.07 193.52 421.07 193.52"/><polygon class="cls-25" points="479.31 245 479.85 244.91 471.45 191.41 470.91 191.49 479.31 245 479.31 245"/><polygon class="cls-25" points="275.47 336.15 311.87 308 349.5 338.93 370.24 267.91 369.72 267.76 349.21 337.99 311.88 307.31 311.71 307.44 275.14 335.73 275.47 336.15 275.47 336.15"/><polygon class="cls-25" points="275.68 244.12 275.66 243.59 271.99 155.18 301.5 128.75 301.15 128.35 271.44 154.95 271.45 155.08 275.1 243.08 221.07 206.35 196.92 134.74 196.41 134.91 220.62 206.7 220.69 206.75 275.68 244.12 275.68 244.12"/><polygon class="cls-25" points="418.97 70.94 425.47 46.59 424.95 46.45 418.57 70.36 346.59 63.15 318.84 47.04 318.56 47.5 346.48 63.68 418.97 70.94 418.97 70.94"/><polygon class="cls-25" points="208.2 453.54 208.74 453.53 207.9 400.34 207.52 400.53 158.7 424.62 126.79 373.34 126.33 373.63 158.5 425.31 158.72 425.2 207.37 401.19 208.2 453.54 208.2 453.54"/><g class="cls-28"><path class="cls-29" d="M279.42,400.43a1.29,1.29,0,1,0,2.58.1,1.29,1.29,0,1,0-2.58-.1Z"/><path class="cls-29" d="M350.63,453.11a.78.78,0,0,0,.74.8.78.78,0,1,0-.74-.8Z"/><path class="cls-29" d="M294.63,408a.77.77,0,1,0,.8-.74.76.76,0,0,0-.8.74Z"/><path class="cls-29" d="M250.47,407.82a1.3,1.3,0,1,0,1.34-1.24,1.3,1.3,0,0,0-1.34,1.24Z"/><path class="cls-25" d="M31.06,229.3c-.65,14.9,4.76,29.09,13.38,41,16.91,23.39,47.43,37.4,76.17,31.74a74.65,74.65,0,0,0,40.14-22.74,73.16,73.16,0,0,0,6.28-7.78l0-.05a67.14,67.14,0,0,0,12.48-39.45c-.35-24.53-11-49.46-30.82-62a61,61,0,0,0-16.23-9.07,57.88,57.88,0,0,0-7.11-2.17c-.87-.19-1.73-.38-2.59-.55-14.42-2.77-28.59-.59-42.32,4.61-17.7,6.7-34,19.59-42.19,36.36a55.67,55.67,0,0,0-3.84,10.17A52.71,52.71,0,0,0,33,217a56.19,56.19,0,0,0-1.92,12.29"/><path class="cls-30" d="M150.27,197.9c7,.28,6.54,11.09-.42,10.82s-6.55-11.09.42-10.82Z"/><path class="cls-30" d="M83.5,174.72c7,.27,6.55,11.08-.42,10.81s-6.54-11.08.42-10.81Z"/><path class="cls-31" d="M69.51,230.75A1.43,1.43,0,1,0,71,229.38a1.43,1.43,0,0,0-1.48,1.37Z"/><path class="cls-31" d="M68.75,219.77a1.42,1.42,0,1,0,1.48-1.37,1.43,1.43,0,0,0-1.48,1.37Z"/><path class="cls-31" d="M85.46,228.11a.86.86,0,0,0,.82.88.85.85,0,0,0,.07-1.69.85.85,0,0,0-.89.81Z"/><path class="cls-30" d="M179.33,238a214.31,214.31,0,0,1,13.5,17.67c10.23,14.89,26.82,40.1,9.89,53.89-13.32,10.88-36.39,1.65-51.64-4.13-6.09-2.32-12.14-4.6-18.11-7-4.42-1.81-8.81-3.71-13.12-5.78-1.17-.54-2.32-1.12-3.47-1.69a339.41,339.41,0,0,1-35-20.64C63.92,258.77,46.58,246.69,31.58,233l-.57-.52-2.54-2.35C16.22,218.57,4.14,205.18.65,190.43S8,162.94,24.75,159.38c15.29-3.24,32.09,1.1,47,7.34a83,83,0,0,0-9.46,5.63,85,85,0,0,0-20.41-4.94C28.24,166,12.36,171,10.76,183.25c-1.57,12,9.45,25,18.78,34.7l1.87,1.93.72.73c11.1,11.23,24,21,37.24,30.43,20.24,14.44,41.23,28.29,64.87,38.5l.31.13q4.39,1.9,8.9,3.63c5.87,2.3,11.82,4.44,17.73,6.6,7.53,2.75,15.9,5.69,24,5.8,23.95.31,10.31-27.77,3.85-38.06-3.69-5.86-7.63-11.63-11.91-17.22L179.33,238Z"/></g><path class="cls-2" d="M571.22,312.29a8.56,8.56,0,0,1,.49-4.82,7.39,7.39,0,0,1,5.85-4.1c6.11-1,12.93,1.48,18.47,3.84a35.18,35.18,0,0,1,6.59,3.48c4.47,3.14,7.91,7.46,11.48,11.53s7.5,8.11,12.64,10.24c5.89,2.45,12.57,2.21,18.81,1.93,5.77-.27,11.51-.62,17.16.87a30.33,30.33,0,0,1,12.81,6.94c8.14,7.46,12,18.27,15.59,28.4,1.88,5.29,3.92,10.8,7.89,14.91,4.55,4.71,10.42,6.18,16.62,7.4,5.16,1,10.25,2.18,14.71,5.09a31.06,31.06,0,0,1,9.15,9.36c5,7.79,7,17.34,7.07,26.5.06,17.9-8.71,37.14-25,45.78a39.87,39.87,0,0,1-25.32,3.95,38.18,38.18,0,0,1-23.37-13.54c-6.24-7.33-10.7-15.93-16.29-23.74a51.93,51.93,0,0,0-9.4-10.4c-4.58-3.7-10.09-5.44-15.44-7.69s-10.06-5.57-13.22-10.68c-3-4.89-4.69-10.44-6.27-15.91-3.07-10.65-6.57-22.74-16.75-28.77-3.46-2-7.51-3.64-11.31-5.5-4.6-1.25-9.11-2.73-12.76-5.71-2.82-2.32-5-5.36-7.22-8.2-1.87-2.34-3.75-4.95-3.92-8.05-.2-3.53,1.63-6.76,2.22-10.16.75-4.28.1-8.29,2.79-12,2.53-3.49,5.47-6,5.93-10.57l0-.37"/><path class="cls-32" d="M580.61,455.47l20.27,19.73,3.69-2.77-12-22.3s-12.73-74.75-43.18-86.22c0,0-42.13-.79,31.2,91.56Z"/><path class="cls-33" d="M600.94,475l-2.43,3.23s-.69,1.53,1.11.78l2.32-3,10.52,11.6s7.39,1.07-7.83-15.32L600.94,475Z"/><path class="cls-34" d="M517.85,466V466c.69,15.53,5.49,37.25,17.28,67.59l63.17,93.3,3.38,5,.26.38,1.51,2.22-.55,17,7.26-17.4-3.09-7.57-.86-2.12-1.84-4.51-28.27-69.35h0L566,525.78s20.44-83.43-19.67-98.19c0,0-30.4-5.07-28.48,38.39"/><path class="cls-35" d="M559.1,429.72c2-9,6.8-22,17.87-31.79,5.32-4.73,7-13.19,4.3-20.42L577,366.26c-2.74-7.21-9.29-11.43-15.92-10.26l-7,1.22c-24.12,4.24-41,29.57-38.69,58,.4,4.92,1,10,1.86,15.06,1.55,9.12,9,15.3,16.87,14L547.19,442c5.73-1,10.43-5.77,11.91-12.28Z"/><path class="cls-36" d="M549.58,334.24l0,0a5.32,5.32,0,0,1,.58.48h0l.31.3.12.09a40.19,40.19,0,0,1,4.29,4.62c.57.73,1.14,1.52,1.69,2.34,2.76,4.23,4.67,9.61,1.85,14.67,0,0,3.2,6.69,11.08,3.85a25,25,0,0,0,8-5.19l0,0v-.18l-.21-3.78-.75-13.91s-4.93,3.62-13.2,2.44a32.18,32.18,0,0,1-13.31-5.43l-.5-.33Z"/><path class="cls-33" d="M545.61,324a15,15,0,0,0,.43,3.26,15.45,15.45,0,0,0,1.37,3.76c4.86,9.42,17.91,12.34,29.18,6.53S593,319.41,588.16,310s-17.93-12.35-29.19-6.54c-8.6,4.43-13.65,12.69-13.36,20.55Z"/><path class="cls-36" d="M549.36,333.77a5.92,5.92,0,0,1,.72.8l.12.19h0l.31.3.12.09a40.19,40.19,0,0,1,4.29,4.62c6.54,2.26,15,8.45,14.62,20.86a28.46,28.46,0,0,1-.49,4.4c-.77,4.16,6.78-3.83,8.22-2.69l.25-6.9v-.2l.68-18.75a30.27,30.27,0,0,1-14.68,2.85,25.19,25.19,0,0,1-14.19-5.58Z"/><path class="cls-33" d="M553.53,314.09s-7.84,4.43-12,2.51c0,0-1.19,1.41,5,4.08l7-6.59Z"/><path class="cls-34" d="M559.09,318.57l6.88,4.88a3.74,3.74,0,1,0,4.33-6.1l-6.87-4.88a3.74,3.74,0,0,0-4.34,6.1Z"/><path class="cls-2" d="M559.89,300.75c1-2.5,5.2-3,7.6-3.14a13.82,13.82,0,0,1,4.71.49,30.21,30.21,0,0,1,7.63,1,32.73,32.73,0,0,1,9.83,4.77c5.91,2.89,11.26,6.57,14.82,12,1.52,2.3-1.86,5.32-4,3.22-1.71-1.66-3.25-3.48-5-5.06-.38-.34-.77-.65-1.17-1-.56-.33-1.11-.68-1.66-1a6.76,6.76,0,0,1,.29,2.18,2.4,2.4,0,0,1-.44,1.33l-.07.43c-.12.63-.28,1.38-.48,2.16a20.42,20.42,0,0,1,1.08,5.45,2.61,2.61,0,0,1-2.16,2.53,10.44,10.44,0,0,1-1.43,4.49,9.3,9.3,0,0,1-.25,2c.41.45.82.91,1.22,1.38,1.74,2-.92,4.2-3.11,3.61a9.68,9.68,0,0,1,.79,2.9,2.23,2.23,0,0,1-1.7,2.39,6.65,6.65,0,0,1-.36,1.74l.2.1c3.13,1.29.66,5.71-2.47,4.42a8.78,8.78,0,0,1-1.51-.81c-1.18.49-2.82.44-3.5-.78-3.93-7-9.56-12.7-9.84-21-.14-3.93.81-7.71,1.7-11.51.53-2.25,1.16-5,.28-7.24-1-2.58-3.78-2.16-6.21-2.28-2.63-.12-5.86-1.84-4.72-4.78Z"/><path class="cls-30" d="M551.91,317.53h0a7.36,7.36,0,1,0-1.74-10.26,7.38,7.38,0,0,0,1.74,10.26Z"/><path class="cls-2" d="M602,632.31l1.51,2.22-.58,16.27,7.29-16.69-3.09-7.57-.86-2.12c-.43.67-.84,1.36-1.23,2.05-1.16,1.78-2.19,3.64-3.3,5.46l.26.38"/><path class="cls-27" d="M545.61,324a15,15,0,0,0,.43,3.26c1.74.71,4.77.75,10.07-.79,0,0-7.08-.34-10.5-2.47Z"/><path class="cls-30" d="M523,471.38v.07c3.68,15,12.54,35.31,29.81,62.63l32.23,19.14h0l93.84,55.7,4.42,2.63,1.93,1.14,1.67,1,6.11,13.82-1.47-17-5.1-4.18-.9-.73-4.7-3.85-99.13-81.1s4.3-85.46-38-92.39c0,0-31.05.72-20.7,43.16Z"/><path class="cls-4" d="M625.8,402.56a.53.53,0,0,0,.52.57.55.55,0,1,0-.52-.57Z"/><path class="cls-4" d="M716.83,479.49a.55.55,0,0,0,.53.57.56.56,0,0,0,.57-.53.56.56,0,0,0-.53-.57.55.55,0,0,0-.57.53Z"/><path class="cls-4" d="M691.9,446.45a.55.55,0,0,0,.53.57.55.55,0,1,0,0-1.1.56.56,0,0,0-.57.53Z"/><path class="cls-4" d="M664.67,425.5a.56.56,0,0,0,.53.57.55.55,0,1,0-.53-.57Z"/><path class="cls-4" d="M688.93,414.84a.54.54,0,0,0,.53.56.53.53,0,0,0,.56-.52.54.54,0,0,0-.52-.57.55.55,0,0,0-.57.53Z"/><path class="cls-4" d="M638.39,404.68a.57.57,0,1,0,.59-.54.56.56,0,0,0-.59.54Z"/><path class="cls-4" d="M630,396.18a.57.57,0,0,0,.55.59.57.57,0,0,0,.05-1.14.58.58,0,0,0-.6.55Z"/><path class="cls-4" d="M666.92,393.12a.58.58,0,0,0,.55.59.56.56,0,0,0,.59-.55.57.57,0,1,0-1.14,0Z"/><path class="cls-4" d="M625.64,363.68a.56.56,0,0,0,.54.59.59.59,0,0,0,.6-.55.58.58,0,0,0-.55-.59.56.56,0,0,0-.59.55Z"/><path class="cls-4" d="M611.8,367.11a.57.57,0,0,0,.55.59.57.57,0,1,0,0-1.14.58.58,0,0,0-.59.55Z"/><path class="cls-4" d="M624.87,369a.69.69,0,0,0,.66.71.68.68,0,0,0,.7-.66.67.67,0,0,0-.65-.7.67.67,0,0,0-.71.65Z"/><path class="cls-4" d="M614.88,358.9a.68.68,0,0,0,1.36.05.68.68,0,0,0-.66-.7.67.67,0,0,0-.7.65"/><path class="cls-4" d="M655,355.79a.68.68,0,0,0,.66.7.67.67,0,0,0,.7-.65.68.68,0,0,0-.65-.71.69.69,0,0,0-.71.66Z"/><g class="cls-37"><rect class="cls-19" x="616.92" y="349.96" width="1.39" height="1.36"/></g><path class="cls-38" d="M619.81,339.81h0a.67.67,0,0,1-.65-.7.68.68,0,0,1,.68-.66h0a.7.7,0,0,1,.66.71.67.67,0,0,1-.68.65"/><path class="cls-39" d="M618.73,343.49h0a.68.68,0,0,1,0-1.36h0a.68.68,0,0,1,0,1.35"/><path class="cls-40" d="M619,350.25h0a.68.68,0,0,1,0-1.36h0a.68.68,0,0,1,0,1.36"/><path class="cls-41" d="M606.33,348.41h0a.68.68,0,0,1-.66-.7.69.69,0,0,1,.69-.66h0a.68.68,0,0,1,0,1.36"/><path class="cls-42" d="M613.43,336.09h0a.68.68,0,0,1-.66-.7.69.69,0,0,1,.68-.66h0a.68.68,0,0,1,0,1.35"/><path class="cls-39" d="M612.19,337.15h0a.68.68,0,0,1,0-1.36h0a.68.68,0,0,1,0,1.36"/><path class="cls-43" d="M616.91,368.78h0a.68.68,0,0,1,0-1.36h0a.68.68,0,0,1,0,1.36"/><path class="cls-44" d="M615.89,327.32h0a.68.68,0,0,1-.66-.7.69.69,0,0,1,.69-.66h0a.68.68,0,0,1,.65.71.67.67,0,0,1-.67.65"/><path class="cls-40" d="M611.69,346.14h0a.67.67,0,0,1-.65-.7.68.68,0,0,1,.68-.66h0a.7.7,0,0,1,.66.71.68.68,0,0,1-.68.65"/><path class="cls-38" d="M617.17,336.62h0a.68.68,0,0,1,0-1.36h0a.69.69,0,0,1,.65.71.68.68,0,0,1-.68.65"/><path class="cls-44" d="M616.8,348.2h0a.68.68,0,0,1,0-1.36h0a.68.68,0,0,1,0,1.36"/><path class="cls-38" d="M616.34,338.2h0a.68.68,0,0,1-.66-.7.69.69,0,0,1,.68-.66h0a.67.67,0,0,1,.65.7.67.67,0,0,1-.67.65"/><path class="cls-39" d="M620.49,347.49h0a.68.68,0,0,1-.66-.7.69.69,0,0,1,.68-.66h0a.68.68,0,0,1,.65.71.67.67,0,0,1-.67.65"/><path class="cls-44" d="M617.15,329.11h0a.68.68,0,0,1,0-1.36h0a.68.68,0,0,1,0,1.36"/><path class="cls-40" d="M615.63,352.91h0a.67.67,0,0,1-.65-.71.67.67,0,0,1,.67-.65h0a.68.68,0,0,1,.66.7.69.69,0,0,1-.68.66"/><path class="cls-45" d="M617.87,361.29h0a.69.69,0,0,1,0-1.37h0a.69.69,0,0,1,.65.71.68.68,0,0,1-.68.66"/><path class="cls-40" d="M614.09,350h0a.68.68,0,0,1,0-1.36h0a.68.68,0,0,1,0,1.36"/><path class="cls-46" d="M612,356.47h0a.68.68,0,0,1,0-1.36h0a.67.67,0,0,1,.65.71.67.67,0,0,1-.67.65"/><path class="cls-44" d="M608.18,345.88h0a.68.68,0,0,1-.65-.71.67.67,0,0,1,.67-.65h0a.67.67,0,0,1,.65.7.68.68,0,0,1-.68.66"/><path class="cls-12" d="M610.87,362.83h0a.67.67,0,0,1-.66-.7.69.69,0,0,1,.68-.66h0a.69.69,0,0,1,.65.71.67.67,0,0,1-.68.65"/><path class="cls-47" d="M620.13,376.87h0a.68.68,0,0,1,0-1.36h0a.68.68,0,0,1,.66.71.69.69,0,0,1-.69.65"/><path class="cls-39" d="M609.69,344.07h0a.68.68,0,0,1-.66-.7.69.69,0,0,1,.68-.66h0a.68.68,0,0,1,0,1.35"/><path class="cls-42" d="M610.59,339.38h0a.68.68,0,0,1,0-1.36h0a.69.69,0,0,1,0,1.37"/><path class="cls-2" d="M683.34,611.55l1.93,1.14,1.08,2.48,7,15.85L693,610.31l-6.53-4-.9-.73a26.33,26.33,0,0,0-2.24,6Z"/><path class="cls-33" d="M678.92,608.92l4.42,2.63,1.93,1.14c.38-2.13.79-4.27,1.21-6.4l-.9-.73-4.7-3.85c-.06.3-.12.6-.16.9-.14.73-.26,1.47-.4,2.22-.5,1.35-1,2.72-1.4,4.09Z"/><path class="cls-48" d="M612,443.88l22,17.72,3.42-3.11-14-21.06s-19.73-73.21-51.14-81.76c0,0-42,3.2,39.72,88.21Z"/><path class="cls-33" d="M634.1,461.42,632,464.86s-.54,1.59,1.18.67l2-3.24,11.56,10.57s7.46.36-9.24-14.52l-3.41,3.08Z"/><polygon class="cls-30" points="566.54 76.82 567.03 75.89 555.52 69.83 557.62 82.11 548.71 90.8 561.03 92.59 566.54 103.75 572.05 92.59 584.37 90.8 575.46 82.11 577.56 69.83 566.05 75.89 566.54 76.82 567.03 75.89 566.54 76.82 567.03 77.75 574.76 73.7 573.19 82.84 579.83 89.32 570.65 90.66 566.54 98.98 562.43 90.66 553.25 89.32 559.89 82.84 558.32 73.7 566.54 78.01 567.03 77.75 566.54 76.82 566.54 76.82"/><polygon class="cls-2" points="607.14 157.2 608.27 158.04 614 150.41 605.2 150.5 600.13 143.29 597.5 151.69 589.08 154.28 596.25 159.39 596.11 168.19 603.18 162.95 611.51 165.8 608.48 156.75 607.14 157.2 608.27 158.04 607.14 157.2 605.81 157.65 607.03 161.29 602.69 159.8 599.02 162.53 599.09 157.95 595.36 155.3 599.74 153.95 601.11 149.58 603.74 153.33 608.32 153.29 605.57 156.95 605.81 157.65 607.14 157.2 607.14 157.2"/><path class="cls-2" d="M207.07,572.52l-1,0v.45a11.37,11.37,0,0,0,10.93,11.36h.45a11.39,11.39,0,0,0,11.36-10.93v-.45a11.38,11.38,0,0,0-10.93-11.36h-.46A11.37,11.37,0,0,0,206,572.48l1,0,1.06,0a9.26,9.26,0,0,1,9.24-8.9h.37a9.26,9.26,0,0,1,8.9,9.25v.37a9.25,9.25,0,0,1-9.24,8.89H217a9.26,9.26,0,0,1-8.9-9.25v-.37l-1.06,0Z"/><path class="cls-23" d="M464.16,0A15.59,15.59,0,0,1,464,2.82a359.09,359.09,0,0,1,89.69,24.33c.27-.9.53-1.81.86-2.69A361.63,361.63,0,0,0,464.16,0Z"/><path class="cls-23" d="M653.11,85.49q-9.45-8.19-19.43-15.75c-.62.72-1.23,1.43-1.89,2.11,6.63,5,13.05,10.21,19.3,15.62a13.52,13.52,0,0,1,2-2Z"/><path class="cls-23" d="M768.62,273.55A364.94,364.94,0,0,0,676,107.12a15.49,15.49,0,0,1-1.65,2.35,362.09,362.09,0,0,1,91.84,166,11.53,11.53,0,0,1,2.41-2Z"/><path class="cls-23" d="M779.19,361.3a363.56,363.56,0,0,0-5.49-63.64,13.12,13.12,0,0,1-3-.68,360.61,360.61,0,0,1,5.64,65.41,15.45,15.45,0,0,1,2.83-1.09Z"/><path class="cls-23" d="M145.46,601.05a12.5,12.5,0,0,1-1.78,2.25,365.52,365.52,0,0,0,118.68,88.05,13.21,13.21,0,0,1,1-2.65,362.52,362.52,0,0,1-117.89-87.65Z"/><path class="cls-23" d="M129.45,581.81A362.54,362.54,0,0,1,87,512.16a15.28,15.28,0,0,1-2.8.67,364.84,364.84,0,0,0,42.82,70.48,11.44,11.44,0,0,1,2.4-1.5Z"/><path class="cls-23" d="M285.59,701.14a361.34,361.34,0,0,0,56.86,16.52,19.78,19.78,0,0,1,0-2.88,356.87,356.87,0,0,1-55.92-16.29,13.78,13.78,0,0,1-1,2.65Z"/><path class="cls-23" d="M443.15,721.08a363.78,363.78,0,0,1-46.87.59c-7.79-.4-15.49-1.09-23.13-2a18.39,18.39,0,0,1-.78,2.75c7.85.93,15.76,1.63,23.76,2a364.16,364.16,0,0,0,47.59-.62,14.59,14.59,0,0,1-.57-2.78Z"/><path class="cls-30" d="M237.69,619.25l-.36-2.08c.6-.11,14.79-2.8,18.57-20.88l2.07.44c-4.09,19.52-20.12,22.49-20.28,22.52Z"/><path class="cls-30" d="M275.92,619.5c-.16,0-16.19-3-20.28-22.53l2.07-.43c3.8,18.13,18.42,20.85,18.57,20.88l-.36,2.08Z"/><path class="cls-30" d="M257.46,640.65l-2.07-.43c4.09-19.53,20.13-22.5,20.29-22.53l.36,2.08c-.6.11-14.79,2.8-18.58,20.88Z"/><path class="cls-30" d="M255.66,640.4c-3.8-18.13-18.42-20.85-18.57-20.87l.36-2.09c.16,0,16.19,3,20.28,22.53l-2.07.43Z"/><path class="cls-2" d="M479.49,363.71a24.56,24.56,0,1,1-24.55-24.55,24.55,24.55,0,0,1,24.55,24.55Z"/></g></g></svg>